<svg viewBox="0 0 200 200" xmlns="http://www.w3.org/2000/svg">
  <!-- Cupcake base -->
  <path d="M 70 120 L 130 120 L 125 180 L 75 180 Z" fill="#8b4513" stroke="#654321" stroke-width="2"/>
  
  <!-- Cupcake liner ridges -->
  <line x1="75" y1="130" x2="125" y2="130" stroke="#654321" stroke-width="1"/>
  <line x1="77" y1="140" x2="123" y2="140" stroke="#654321" stroke-width="1"/>
  <line x1="79" y1="150" x2="121" y2="150" stroke="#654321" stroke-width="1"/>
  <line x1="81" y1="160" x2="119" y2="160" stroke="#654321" stroke-width="1"/>
  <line x1="83" y1="170" x2="117" y2="170" stroke="#654321" stroke-width="1"/>
  
  <!-- Frosting swirl -->
  <circle cx="100" cy="100" r="25" fill="#ff69b4"/>
  <circle cx="90" cy="80" r="20" fill="#ff1493"/>
  <circle cx="110" cy="85" r="18" fill="#ff69b4"/>
  <circle cx="95" cy="60" r="15" fill="#ff1493"/>
  <circle cx="105" cy="65" r="12" fill="#ff69b4"/>
  
  <!-- Cherry on top -->
  <circle cx="100" cy="45" r="6" fill="#dc143c"/>
  <path d="M 100 39 Q 105 30 110 25" stroke="#228b22" stroke-width="2" fill="none"/>
  
  <!-- Sprinkles -->
  <rect x="85" y="75" width="8" height="2" fill="#ffff00" transform="rotate(30 85 75)"/>
  <rect x="115" y="90" width="8" height="2" fill="#00ff00" transform="rotate(-45 115 90)"/>
  <rect x="105" y="105" width="8" height="2" fill="#ff4500" transform="rotate(60 105 105)"/>
  <rect x="80" y="95" width="8" height="2" fill="#4169e1" transform="rotate(-20 80 95)"/>
  <rect x="120" y="75" width="8" height="2" fill="#ff69b4" transform="rotate(80 120 75)"/>
  <rect x="90" y="110" width="8" height="2" fill="#00ffff" transform="rotate(15 90 110)"/>
</svg>