<svg viewBox="0 0 200 200" xmlns="http://www.w3.org/2000/svg">
  <!-- Top bun -->
  <ellipse cx="100" cy="70" rx="50" ry="25" fill="#d2691e"/>
  <ellipse cx="100" cy="75" rx="45" ry="20" fill="#daa520"/>
  
  <!-- Sesame seeds -->
  <ellipse cx="80" cy="65" rx="2" ry="3" fill="#fff8dc"/>
  <ellipse cx="95" cy="60" rx="2" ry="3" fill="#fff8dc"/>
  <ellipse cx="110" cy="65" rx="2" ry="3" fill="#fff8dc"/>
  <ellipse cx="125" cy="70" rx="2" ry="3" fill="#fff8dc"/>
  
  <!-- Lettuce -->
  <path d="M 55 90 Q 70 85 85 90 Q 100 85 115 90 Q 130 85 145 90 L 145 100 Q 130 95 115 100 Q 100 95 85 100 Q 70 95 55 100 Z" fill="#27ae60"/>
  
  <!-- Tomato -->
  <ellipse cx="100" cy="105" rx="40" ry="8" fill="#e74c3c"/>
  <circle cx="80" cy="105" r="3" fill="#c0392b"/>
  <circle cx="120" cy="105" r="3" fill="#c0392b"/>
  
  <!-- Cheese -->
  <path d="M 60 115 L 140 115 L 135 125 L 65 125 Z" fill="#f4d03f"/>
  
  <!-- Meat patty -->
  <ellipse cx="100" cy="135" rx="35" ry="12" fill="#8b4513"/>
  <ellipse cx="100" cy="138" rx="32" ry="8" fill="#a0522d"/>
  
  <!-- Bottom bun -->
  <ellipse cx="100" cy="155" rx="48" ry="20" fill="#daa520"/>
  <ellipse cx="100" cy="160" rx="45" ry="15" fill="#d2691e"/>
  
  <!-- Pickle -->
  <ellipse cx="85" cy="125" rx="6" ry="3" fill="#2ecc71"/>
  <ellipse cx="115" cy="125" rx="6" ry="3" fill="#2ecc71"/>
</svg>