<svg viewBox="0 0 200 200" xmlns="http://www.w3.org/2000/svg">
  <!-- Pizza base -->
  <path d="M 100 20 L 180 160 L 20 160 Z" fill="#ffdd44" stroke="#d4a831" stroke-width="3"/>
  
  <!-- Crust -->
  <path d="M 180 160 L 20 160 Q 100 180 180 160" fill="#d2691e" stroke="#a0522d" stroke-width="2"/>
  
  <!-- Tomato sauce -->
  <path d="M 95 35 L 165 145 L 35 145 Z" fill="#e74c3c"/>
  
  <!-- Cheese -->
  <path d="M 90 45 L 155 135 L 45 135 Z" fill="#fff8dc"/>
  
  <!-- Pepperoni slices -->
  <circle cx="80" cy="80" r="8" fill="#c0392b"/>
  <circle cx="110" cy="70" r="8" fill="#c0392b"/>
  <circle cx="90" cy="110" r="8" fill="#c0392b"/>
  <circle cx="120" cy="100" r="8" fill="#c0392b"/>
  <circle cx="70" cy="120" r="8" fill="#c0392b"/>
  
  <!-- Cheese bubbles -->
  <circle cx="75" cy="65" r="4" fill="#f4d03f"/>
  <circle cx="115" cy="90" r="3" fill="#f4d03f"/>
  <circle cx="95" cy="85" r="3" fill="#f4d03f"/>
  <circle cx="105" cy="115" r="4" fill="#f4d03f"/>
  
  <!-- Steam lines -->
  <path d="M 60 50 Q 65 40 60 30" stroke="#ddd" stroke-width="2" fill="none" opacity="0.7"/>
  <path d="M 75 45 Q 80 35 75 25" stroke="#ddd" stroke-width="2" fill="none" opacity="0.7"/>
  <path d="M 125 55 Q 130 45 125 35" stroke="#ddd" stroke-width="2" fill="none" opacity="0.7"/>
</svg>